# Blender 4.0.1
# www.blender.org
mtllib GrassBlock.mtl
o Cube
v 1.000000 2.000000 -1.000000
v 1.000000 0.000000 -1.000000
v 1.000000 2.000000 1.000000
v 1.000000 0.000000 1.000000
v -1.000000 2.000000 -1.000000
v -1.000000 0.000000 -1.000000
v -1.000000 2.000000 1.000000
v -1.000000 0.000000 1.000000
vn -0.0000 1.0000 -0.0000
vn -0.0000 -0.0000 1.0000
vn -1.0000 -0.0000 -0.0000
vn -0.0000 -1.0000 -0.0000
vn 1.0000 -0.0000 -0.0000
vn -0.0000 -0.0000 -1.0000
vt 0.999860 0.625000
vt 0.749860 0.375000
vt 0.999860 0.375000
vt 0.499860 0.625000
vt 0.499860 0.375000
vt 0.499860 0.875000
vt 0.249860 0.625000
vt 0.249860 0.375000
vt 0.249860 0.125000
vt -0.000140 0.625000
vt 0.749860 0.625000
vt 0.249860 0.875000
vt 0.499860 0.125000
vt -0.000140 0.375000
s 0
usemtl Material
f 5/1/1 3/2/1 1/3/1
f 3/2/2 8/4/2 4/5/2
f 7/6/3 6/7/3 8/4/3
f 2/8/4 8/4/4 6/7/4
f 1/9/5 4/5/5 2/8/5
f 5/10/6 2/8/6 6/7/6
f 5/1/1 7/11/1 3/2/1
f 3/2/2 7/11/2 8/4/2
f 7/6/3 5/12/3 6/7/3
f 2/8/4 4/5/4 8/4/4
f 1/9/5 3/13/5 4/5/5
f 5/10/6 1/14/6 2/8/6
