# Blender 4.0.1
# www.blender.org
mtllib Portal.mtl
o Cube
v 1.000000 0.181668 -1.000000
v 1.000000 0.000000 -1.000000
v 1.000000 0.181668 1.000000
v 1.000000 0.000000 1.000000
v -1.000000 0.181668 -1.000000
v -1.000000 0.000000 -1.000000
v -1.000000 0.181668 1.000000
v -1.000000 0.000000 1.000000
v -1.000000 0.000000 -0.333333
v -1.000000 0.000000 0.333333
v 1.000000 0.181668 -0.333333
v 1.000000 0.181668 0.333333
v -1.000000 0.181668 0.333333
v -1.000000 0.181668 -0.333333
v 1.000000 0.000000 0.333333
v 1.000000 0.000000 -0.333333
v 0.333333 0.000000 -1.000000
v -0.333333 0.000000 -1.000000
v 0.333333 0.181668 1.000000
v -0.333333 0.181668 1.000000
v -0.333333 0.000000 1.000000
v 0.333333 0.000000 1.000000
v -0.333333 0.181668 -1.000000
v 0.333333 0.181668 -1.000000
v 0.333333 0.000000 -0.333333
v -0.333333 0.000000 -0.333333
v 0.333333 0.000000 0.333333
v -0.333333 0.000000 0.333333
v -0.333333 0.556307 -0.333333
v 0.333333 0.556307 -0.333333
v -0.333333 0.556307 0.333333
v 0.333333 0.556307 0.333333
v -0.333333 1.325386 -0.333333
v 0.333333 1.325386 -0.333333
v -0.333333 1.325386 0.333333
v 0.333333 1.325386 0.333333
v -0.333333 2.382923 -0.333333
v 0.333333 2.382923 -0.333333
v -0.333333 2.382923 0.333333
v 0.333333 2.382923 0.333333
v -0.169531 2.519910 -0.169531
v 0.169531 2.519910 -0.169531
v -0.169531 2.519910 0.169531
v 0.169531 2.519910 0.169531
v -0.169531 4.387747 -0.169531
v 0.169531 4.387747 -0.169531
v -0.169531 4.387747 0.169531
v 0.169531 4.387747 0.169531
v -0.117677 4.472027 -0.117677
v 0.117677 4.472027 -0.117677
v -0.117677 4.472027 0.117677
v 0.117677 4.472027 0.117677
v -0.030890 6.239356 -0.030890
v 0.030890 6.239356 -0.030890
v -0.030890 6.239356 0.030890
v 0.030890 6.239356 0.030890
vn -0.4399 0.7829 0.4399
vn -0.0000 -0.0000 1.0000
vn -1.0000 -0.0000 -0.0000
vn -0.0000 -1.0000 -0.0000
vn 1.0000 -0.0000 -0.0000
vn -0.0000 -0.0000 -1.0000
vn -0.4399 0.7829 -0.4399
vn -0.4899 0.8718 -0.0000
vn 0.4899 0.8718 -0.0000
vn -0.0000 1.0000 -0.0000
vn -0.0000 0.8718 -0.4899
vn -0.0000 0.8718 0.4899
vn -0.6415 0.7671 -0.0000
vn -0.0000 0.7671 0.6415
vn 0.6415 0.7671 -0.0000
vn -0.0000 0.7671 -0.6415
vn 0.8517 0.5240 -0.0000
vn -0.9988 0.0490 -0.0000
vn -0.0000 0.5240 -0.8517
vn -0.8517 0.5240 -0.0000
vn -0.0000 0.5240 0.8517
vn -0.0000 0.0490 0.9988
vn 0.9988 0.0490 -0.0000
vn -0.0000 0.0490 -0.9988
vn 0.4399 0.7829 -0.4399
vn 0.4399 0.7829 0.4399
vt 0.875000 0.666667
vt 0.791667 0.750000
vt 0.791667 0.666667
vt 0.625000 0.916667
vt 0.375000 1.000000
vt 0.375000 0.916667
vt 0.625000 0.166667
vt 0.375000 0.250000
vt 0.375000 0.166667
vt 0.375000 0.666667
vt 0.291667 0.750000
vt 0.291667 0.666667
vt 0.625000 0.666667
vt 0.375000 0.750000
vt 0.625000 0.416667
vt 0.375000 0.500000
vt 0.375000 0.416667
vt 0.625000 0.500000
vt 0.375000 0.583333
vt 0.625000 0.583333
vt 0.291667 0.583333
vt 0.291667 0.500000
vt 0.625000 0.000000
vt 0.375000 0.083333
vt 0.375000 0.000000
vt 0.625000 0.083333
vt 0.791667 0.500000
vt 0.875000 0.583333
vt 0.791667 0.583333
vt 0.708333 0.583333
vt 0.708333 0.500000
vt 0.208333 0.583333
vt 0.125000 0.666667
vt 0.125000 0.583333
vt 0.208333 0.666667
vt 0.208333 0.500000
vt 0.125000 0.500000
vt 0.625000 0.250000
vt 0.375000 0.333333
vt 0.625000 0.333333
vt 0.125000 0.750000
vt 0.208333 0.750000
vt 0.625000 0.750000
vt 0.375000 0.833333
vt 0.625000 0.833333
vt 0.708333 0.750000
vt 0.708333 0.666667
vt 0.875000 0.750000
vt 0.625000 1.000000
vt 0.875000 0.500000
s 0
usemtl Material
f 13/1/1 20/2/1 31/3/1
f 20/4/2 8/5/2 21/6/2
f 14/7/3 6/8/3 9/9/3
f 15/10/4 22/11/4 27/12/4
f 12/13/5 4/14/5 15/10/5
f 24/15/6 2/16/6 17/17/6
f 1/18/5 16/19/5 2/16/5
f 11/20/5 15/10/5 16/19/5
f 2/16/4 25/21/4 17/22/4
f 16/19/4 27/12/4 25/21/4
f 7/23/3 10/24/3 8/25/3
f 13/26/3 9/9/3 10/24/3
f 23/27/7 14/28/7 29/29/7
f 14/28/8 31/3/8 29/29/8
f 30/30/9 12/13/9 11/20/9
f 31/3/3 33/29/3 29/29/3
f 24/31/10 11/20/10 1/18/10
f 23/27/11 30/30/11 24/31/11
f 26/32/4 10/33/4 9/34/4
f 25/21/4 28/35/4 26/32/4
f 18/36/4 9/34/4 6/37/4
f 17/22/4 26/32/4 18/36/4
f 5/38/6 18/39/6 6/8/6
f 23/40/6 17/17/6 18/39/6
f 28/35/4 8/41/4 10/33/4
f 27/12/4 21/42/4 28/35/4
f 3/43/2 22/44/2 4/14/2
f 19/45/2 21/6/2 22/44/2
f 12/13/10 19/46/10 3/43/10
f 31/3/12 19/46/12 32/47/12
f 34/30/5 40/47/5 36/47/5
f 32/47/2 35/3/2 31/3/2
f 29/29/6 34/30/6 30/30/6
f 30/30/5 36/47/5 32/47/5
f 39/3/13 41/29/13 37/29/13
f 33/29/6 38/30/6 34/30/6
f 35/3/3 37/29/3 33/29/3
f 36/47/2 39/3/2 35/3/2
f 42/30/5 48/47/5 44/47/5
f 40/47/14 43/3/14 39/3/14
f 38/30/15 44/47/15 40/47/15
f 37/29/16 42/30/16 38/30/16
f 46/30/17 52/47/17 48/47/17
f 41/29/6 46/30/6 42/30/6
f 43/3/3 45/29/3 41/29/3
f 44/47/2 47/3/2 43/3/2
f 51/3/18 53/29/18 49/29/18
f 45/29/19 50/30/19 46/30/19
f 47/3/20 49/29/20 45/29/20
f 48/47/21 51/3/21 47/3/21
f 53/29/10 56/47/10 54/30/10
f 52/47/22 55/3/22 51/3/22
f 50/30/23 56/47/23 52/47/23
f 49/29/24 54/30/24 50/30/24
f 13/1/10 7/48/10 20/2/10
f 20/4/2 7/49/2 8/5/2
f 14/7/3 5/38/3 6/8/3
f 15/10/4 4/14/4 22/11/4
f 12/13/5 3/43/5 4/14/5
f 24/15/6 1/18/6 2/16/6
f 1/18/5 11/20/5 16/19/5
f 11/20/5 12/13/5 15/10/5
f 2/16/4 16/19/4 25/21/4
f 16/19/4 15/10/4 27/12/4
f 7/23/3 13/26/3 10/24/3
f 13/26/3 14/7/3 9/9/3
f 23/27/10 5/50/10 14/28/10
f 14/28/8 13/1/8 31/3/8
f 30/30/9 32/47/9 12/13/9
f 31/3/3 35/3/3 33/29/3
f 24/31/25 30/30/25 11/20/25
f 23/27/11 29/29/11 30/30/11
f 26/32/4 28/35/4 10/33/4
f 25/21/4 27/12/4 28/35/4
f 18/36/4 26/32/4 9/34/4
f 17/22/4 25/21/4 26/32/4
f 5/38/6 23/40/6 18/39/6
f 23/40/6 24/15/6 17/17/6
f 28/35/4 21/42/4 8/41/4
f 27/12/4 22/11/4 21/42/4
f 3/43/2 19/45/2 22/44/2
f 19/45/2 20/4/2 21/6/2
f 12/13/26 32/47/26 19/46/26
f 31/3/12 20/2/12 19/46/12
f 34/30/5 38/30/5 40/47/5
f 32/47/2 36/47/2 35/3/2
f 29/29/6 33/29/6 34/30/6
f 30/30/5 34/30/5 36/47/5
f 39/3/13 43/3/13 41/29/13
f 33/29/6 37/29/6 38/30/6
f 35/3/3 39/3/3 37/29/3
f 36/47/2 40/47/2 39/3/2
f 42/30/5 46/30/5 48/47/5
f 40/47/14 44/47/14 43/3/14
f 38/30/15 42/30/15 44/47/15
f 37/29/16 41/29/16 42/30/16
f 46/30/17 50/30/17 52/47/17
f 41/29/6 45/29/6 46/30/6
f 43/3/3 47/3/3 45/29/3
f 44/47/2 48/47/2 47/3/2
f 51/3/18 55/3/18 53/29/18
f 45/29/19 49/29/19 50/30/19
f 47/3/20 51/3/20 49/29/20
f 48/47/21 52/47/21 51/3/21
f 53/29/10 55/3/10 56/47/10
f 52/47/22 56/47/22 55/3/22
f 50/30/23 54/30/23 56/47/23
f 49/29/24 53/29/24 54/30/24
