# Blender 4.0.1
# www.blender.org
mtllib DefaultCube.mtl
o Cube
v 1.000000 2.000000 -1.000000
v 1.000000 0.000000 -1.000000
v 1.000000 2.000000 1.000000
v 1.000000 0.000000 1.000000
v -1.000000 2.000000 -1.000000
v -1.000000 0.000000 -1.000000
v -1.000000 2.000000 1.000000
v -1.000000 0.000000 1.000000
v 1.000000 2.000000 -1.000000
v 1.000000 2.000000 -1.000000
v -1.000000 2.000000 1.000000
v 1.000000 2.000000 1.000000
v -1.000000 2.000000 -1.000000
v -1.000000 2.000000 -1.000000
vn -0.0000 1.0000 -0.0000
vn -0.0000 0.7071 0.7071
vn -0.5774 -0.5774 0.5774
vn 0.5774 -0.5774 0.5774
vn -1.0000 -0.0000 -0.0000
vn -0.5774 -0.5774 -0.5774
vn 0.5774 -0.5774 -0.5774
vn 1.0000 -0.0000 -0.0000
vn -0.0000 -0.0000 -1.0000
vt 0.994101 0.618370
vt 0.757434 0.381703
vt 0.994101 0.381703
vt 0.738422 0.381076
vt 0.500501 0.618997
vt 0.500501 0.381076
vt 0.498865 0.857948
vt 0.261550 0.620633
vt 0.498865 0.620633
vt 0.261047 0.380875
vt 0.499369 0.619198
vt 0.261047 0.619198
vt 0.262062 0.143749
vt 0.498354 0.380041
vt 0.262062 0.380041
vt 0.021478 0.618483
vt 0.258369 0.381591
vt 0.258369 0.618482
vt 0.757434 0.618370
vt 0.738422 0.618997
vt 0.261550 0.857948
vt 0.499369 0.380875
vt 0.498354 0.143749
vt 0.021478 0.381591
s 1
usemtl Material
f 14/1/1 12/2/2 10/3/1
f 12/4/2 8/5/3 4/6/4
f 11/7/5 6/8/6 8/9/3
f 2/10/7 8/11/3 6/12/6
f 9/13/8 4/14/4 2/15/7
f 13/16/9 2/17/7 6/18/6
f 14/1/1 7/19/2 12/2/2
f 12/4/2 7/20/2 8/5/3
f 11/7/5 5/21/5 6/8/6
f 2/10/7 4/22/4 8/11/3
f 9/13/8 3/23/8 4/14/4
f 13/16/9 1/24/9 2/17/7
